<svg width="179" height="28" viewBox="0 0 179 28" fill="none" xmlns="http://www.w3.org/2000/svg">
<path d="M0.78125 28V0.363636H12.7642C14.8693 0.363636 16.6371 0.647017 18.0675 1.21378C19.5069 1.78054 20.5909 2.5812 21.3196 3.61577C22.0573 4.65033 22.4261 5.86932 22.4261 7.27273C22.4261 8.2893 22.2012 9.21591 21.7514 10.0526C21.3106 10.8892 20.6899 11.5909 19.8892 12.1577C19.0885 12.7154 18.1529 13.1023 17.0824 13.3182V13.5881C18.2699 13.633 19.3494 13.9344 20.321 14.4922C21.2926 15.041 22.0663 15.8011 22.642 16.7727C23.2178 17.7353 23.5057 18.8688 23.5057 20.1733C23.5057 21.6847 23.1098 23.0296 22.3182 24.2081C21.5355 25.3866 20.42 26.3132 18.9716 26.9879C17.5232 27.6626 15.7959 28 13.7898 28H0.78125ZM8.28409 22.0085H11.7926C13.0521 22.0085 13.9967 21.7746 14.6264 21.3068C15.2562 20.83 15.571 20.1283 15.571 19.2017C15.571 18.554 15.4226 18.0052 15.1257 17.5554C14.8288 17.1056 14.406 16.7637 13.8572 16.5298C13.3175 16.2959 12.6652 16.179 11.9006 16.179H8.28409V22.0085ZM8.28409 11.5369H11.3608C12.0175 11.5369 12.5978 11.4335 13.1016 11.2266C13.6054 11.0196 13.9967 10.7228 14.2756 10.3359C14.5634 9.9401 14.7074 9.45881 14.7074 8.89204C14.7074 8.0374 14.4015 7.38518 13.7898 6.93537C13.178 6.47656 12.4044 6.24716 11.4688 6.24716H8.28409V11.5369ZM35.243 28H27.1464L36.2686 0.363636H46.5243L55.6464 28H47.5499L41.5044 7.97443H41.2885L35.243 28ZM33.7317 17.0966H48.9533V22.7102H33.7317V17.0966ZM84.1201 0.363636V28H77.8588L67.873 13.4801H67.711V28H60.2082V0.363636H66.5775L76.4014 14.8295H76.6173V0.363636H84.1201ZM96.7481 28H88.6515L97.7737 0.363636H108.029L117.152 28H109.055L103.009 7.97443H102.794L96.7481 28ZM95.2368 17.0966H110.458V22.7102H95.2368V17.0966ZM145.625 0.363636V28H139.364L129.378 13.4801H129.216V28H121.713V0.363636H128.083L137.906 14.8295H138.122V0.363636H145.625ZM158.253 28H150.157L159.279 0.363636H169.534L178.657 28H170.56L164.515 7.97443H164.299L158.253 28ZM156.742 17.0966H171.963V22.7102H156.742V17.0966Z" fill="#FFBA07"/>
<path d="M0.78125 28H-4.21875V33H0.78125V28ZM0.78125 0.363636V-4.63636H-4.21875V0.363636H0.78125ZM18.0675 1.21378L16.2256 5.8622L16.2356 5.86612L18.0675 1.21378ZM21.3196 3.61577L17.2318 6.495L17.2401 6.50683L17.2485 6.51861L21.3196 3.61577ZM21.7514 10.0526L17.3475 7.68488L17.3376 7.70333L17.3279 7.72186L21.7514 10.0526ZM19.8892 12.1577L22.7472 16.2603L22.7627 16.2496L22.778 16.2387L19.8892 12.1577ZM17.0824 13.3182L16.0939 8.41687L12.0824 9.22591V13.3182H17.0824ZM17.0824 13.5881H12.0824V18.4023L16.8931 18.5845L17.0824 13.5881ZM20.321 14.4922L17.8317 18.8285L17.8468 18.8372L17.8621 18.8458L20.321 14.4922ZM22.642 16.7727L18.3406 19.3217L18.3458 19.3305L18.351 19.3393L22.642 16.7727ZM22.3182 24.2081L18.1677 21.42L18.1603 21.4309L18.153 21.4419L22.3182 24.2081ZM18.9716 26.9879L16.8602 22.4556V22.4556L18.9716 26.9879ZM8.28409 22.0085H3.28409V27.0085H8.28409V22.0085ZM14.6264 21.3068L17.608 25.3205L17.6264 25.3069L17.6446 25.2931L14.6264 21.3068ZM13.8572 16.5298L11.8692 21.1176L11.883 21.1236L11.8968 21.1294L13.8572 16.5298ZM8.28409 16.179V11.179H3.28409V16.179H8.28409ZM8.28409 11.5369H3.28409V16.5369H8.28409V11.5369ZM13.1016 11.2266L15.0012 15.8517H15.0012L13.1016 11.2266ZM14.2756 10.3359L10.2319 7.39508L10.2258 7.40349L10.2197 7.41193L14.2756 10.3359ZM13.7898 6.93537L10.7898 10.9354L10.8087 10.9496L10.8278 10.9636L13.7898 6.93537ZM8.28409 6.24716V1.24716H3.28409V6.24716H8.28409ZM5.78125 28V0.363636H-4.21875V28H5.78125ZM0.78125 5.36364H12.7642V-4.63636H0.78125V5.36364ZM12.7642 5.36364C14.4557 5.36364 15.5542 5.59613 16.2256 5.86219L19.9093 -3.43463C17.72 -4.30209 15.2829 -4.63636 12.7642 -4.63636V5.36364ZM16.2356 5.86612C16.9697 6.15518 17.1798 6.42116 17.2318 6.495L25.4074 0.736535C24.002 -1.25876 22.044 -2.5941 19.8993 -3.43856L16.2356 5.86612ZM17.2485 6.51861C17.3191 6.61751 17.4261 6.79606 17.4261 7.27273H27.4261C27.4261 4.94258 26.7955 2.68315 25.3907 0.712925L17.2485 6.51861ZM17.4261 7.27273C17.4261 7.52262 17.3787 7.62688 17.3475 7.68488L26.1553 12.4202C27.0237 10.8049 27.4261 9.05598 27.4261 7.27273H17.4261ZM17.3279 7.72186C17.2677 7.8361 17.1836 7.94693 17.0004 8.07664L22.778 16.2387C24.1961 15.2349 25.3535 13.9423 26.175 12.3832L17.3279 7.72186ZM17.0312 8.05502C16.8558 8.17718 16.5733 8.32018 16.0939 8.41687L18.0709 18.2195C19.7326 17.8844 21.3213 17.2537 22.7472 16.2603L17.0312 8.05502ZM12.0824 13.3182V13.5881H22.0824V13.3182H12.0824ZM16.8931 18.5845C17.3224 18.6007 17.6047 18.6981 17.8317 18.8285L22.8104 10.1559C21.0942 9.17072 19.2174 8.66535 17.2716 8.59165L16.8931 18.5845ZM17.8621 18.8458C18.0626 18.959 18.205 19.0929 18.3406 19.3217L26.9435 14.2237C25.9276 12.5094 24.5226 11.1229 22.78 10.1386L17.8621 18.8458ZM18.351 19.3393C18.3917 19.4073 18.5057 19.6234 18.5057 20.1733H28.5057C28.5057 18.1143 28.0439 16.0633 26.933 14.2062L18.351 19.3393ZM18.5057 20.1733C18.5057 20.759 18.3692 21.1201 18.1677 21.42L26.4687 26.9962C27.8505 24.9391 28.5057 22.6103 28.5057 20.1733H18.5057ZM18.153 21.4419C17.943 21.7583 17.5852 22.1179 16.8602 22.4556L21.0829 31.5203C23.2548 30.5086 25.1281 29.0149 26.4833 26.9743L18.153 21.4419ZM16.8602 22.4556C16.2196 22.754 15.2475 23 13.7898 23V33C16.3444 33 18.8268 32.5713 21.0829 31.5203L16.8602 22.4556ZM13.7898 23H0.78125V33H13.7898V23ZM8.28409 27.0085H11.7926V17.0085H8.28409V27.0085ZM11.7926 27.0085C13.5254 27.0085 15.7342 26.7125 17.608 25.3205L11.6448 17.2931C11.973 17.0493 12.2229 16.9849 12.2439 16.9797C12.2574 16.9763 12.2294 16.9842 12.1505 16.9926C12.072 17.0009 11.9545 17.0085 11.7926 17.0085V27.0085ZM17.6446 25.2931C19.7482 23.7004 20.571 21.3877 20.571 19.2017H10.571C10.571 19.1012 10.5887 18.7868 10.7731 18.376C10.9688 17.9398 11.2728 17.5745 11.6082 17.3205L17.6446 25.2931ZM20.571 19.2017C20.571 17.775 20.2357 16.2208 19.2988 14.8012L10.9527 20.3096C10.6095 19.7896 10.571 19.3329 10.571 19.2017H20.571ZM19.2988 14.8012C18.4044 13.4461 17.1689 12.5061 15.8177 11.9302L11.8968 21.1294C11.7867 21.0825 11.6235 20.9963 11.4423 20.8498C11.258 20.7008 11.0896 20.5172 10.9527 20.3096L19.2988 14.8012ZM15.8453 11.9421C14.5202 11.3678 13.1531 11.179 11.9006 11.179V21.179C11.9647 21.179 12.0112 21.1814 12.0417 21.184C12.0722 21.1865 12.0845 21.1889 12.0808 21.1882C12.0737 21.1869 11.995 21.1721 11.8692 21.1176L15.8453 11.9421ZM11.9006 11.179H8.28409V21.179H11.9006V11.179ZM3.28409 16.179V22.0085H13.2841V16.179H3.28409ZM8.28409 16.5369H11.3608V6.53693H8.28409V16.5369ZM11.3608 16.5369C12.5381 16.5369 13.7843 16.3514 15.0012 15.8517L11.202 6.60146C11.4112 6.51551 11.4969 6.53693 11.3608 6.53693V16.5369ZM15.0012 15.8517C16.2429 15.3417 17.4324 14.507 18.3314 13.2599L10.2197 7.41193C10.5609 6.93859 10.9678 6.69765 11.202 6.60146L15.0012 15.8517ZM18.3193 13.2768C19.3232 11.8964 19.7074 10.3426 19.7074 8.89204H9.70739C9.70739 8.57502 9.80371 7.98383 10.2319 7.39508L18.3193 13.2768ZM19.7074 8.89204C19.7074 6.67668 18.8193 4.4274 16.7517 2.90711L10.8278 10.9636C10.4988 10.7217 10.1719 10.3557 9.95106 9.88486C9.7397 9.43417 9.70739 9.06328 9.70739 8.89204H19.7074ZM16.7898 2.93537C15.1337 1.69334 13.239 1.24716 11.4688 1.24716V11.2472C11.5301 11.2472 11.4705 11.2548 11.3293 11.2129C11.1788 11.1683 10.9846 11.0815 10.7898 10.9354L16.7898 2.93537ZM11.4688 1.24716H8.28409V11.2472H11.4688V1.24716ZM3.28409 6.24716V11.5369H13.2841V6.24716H3.28409ZM35.243 28V33H38.9565L40.0297 29.445L35.243 28ZM27.1464 28L22.3984 26.4328L20.2307 33H27.1464V28ZM36.2686 0.363636V-4.63636H32.6537L31.5206 -1.20359L36.2686 0.363636ZM46.5243 0.363636L51.2723 -1.20359L50.1392 -4.63636H46.5243V0.363636ZM55.6465 28V33H62.5622L60.3945 26.4328L55.6465 28ZM47.5499 28L42.7632 29.445L43.8364 33H47.5499V28ZM41.5044 7.97443L46.291 6.52941L45.2178 2.97443H41.5044V7.97443ZM41.2885 7.97443V2.97443H37.5751L36.5019 6.52941L41.2885 7.97443ZM33.7317 17.0966V12.0966H28.7317V17.0966H33.7317ZM48.9533 17.0966H53.9533V12.0966H48.9533V17.0966ZM48.9533 22.7102V27.7102H53.9533V22.7102H48.9533ZM33.7317 22.7102H28.7317V27.7102H33.7317V22.7102ZM35.243 23H27.1464V33H35.243V23ZM31.8945 29.5672L41.0166 1.93086L31.5206 -1.20359L22.3984 26.4328L31.8945 29.5672ZM36.2686 5.36364H46.5243V-4.63636H36.2686V5.36364ZM41.7763 1.93086L50.8984 29.5672L60.3945 26.4328L51.2723 -1.20359L41.7763 1.93086ZM55.6465 23H47.5499V33H55.6465V23ZM52.3365 26.555L46.291 6.52941L36.7178 9.41945L42.7632 29.445L52.3365 26.555ZM41.5044 2.97443H41.2885V12.9744H41.5044V2.97443ZM36.5019 6.52941L30.4564 26.555L40.0297 29.445L46.0751 9.41945L36.5019 6.52941ZM33.7317 22.0966H48.9533V12.0966H33.7317V22.0966ZM43.9533 17.0966V22.7102H53.9533V17.0966H43.9533ZM48.9533 17.7102H33.7317V27.7102H48.9533V17.7102ZM38.7317 22.7102V17.0966H28.7317V22.7102H38.7317ZM84.1201 0.363636H89.1201V-4.63636H84.1201V0.363636ZM84.1201 28V33H89.1201V28H84.1201ZM77.8588 28L73.739 30.8333L75.2291 33H77.8588V28ZM67.873 13.4801L71.9927 10.6468L70.5026 8.48011H67.873V13.4801ZM67.711 13.4801V8.48011H62.711V13.4801H67.711ZM67.711 28V33H72.711V28H67.711ZM60.2082 28H55.2082V33H60.2082V28ZM60.2082 0.363636V-4.63636H55.2082V0.363636H60.2082ZM66.5775 0.363636L70.7139 -2.44538L69.226 -4.63636H66.5775V0.363636ZM76.4014 14.8295L72.265 17.6386L73.7529 19.8295H76.4014V14.8295ZM76.6173 14.8295V19.8295H81.6173V14.8295H76.6173ZM76.6173 0.363636V-4.63636H71.6173V0.363636H76.6173ZM79.1201 0.363636V28H89.1201V0.363636H79.1201ZM84.1201 23H77.8588V33H84.1201V23ZM81.9785 25.1667L71.9927 10.6468L63.7532 16.3134L73.739 30.8333L81.9785 25.1667ZM67.873 8.48011H67.711V18.4801H67.873V8.48011ZM62.711 13.4801V28H72.711V13.4801H62.711ZM67.711 23H60.2082V33H67.711V23ZM65.2082 28V0.363636H55.2082V28H65.2082ZM60.2082 5.36364H66.5775V-4.63636H60.2082V5.36364ZM62.4412 3.17265L72.265 17.6386L80.5377 12.0205L70.7139 -2.44538L62.4412 3.17265ZM76.4014 19.8295H76.6173V9.82955H76.4014V19.8295ZM81.6173 14.8295V0.363636H71.6173V14.8295H81.6173ZM76.6173 5.36364H84.1201V-4.63636H76.6173V5.36364ZM96.7481 28V33H100.462L101.535 29.445L96.7481 28ZM88.6515 28L83.9035 26.4328L81.7358 33H88.6515V28ZM97.7737 0.363636V-4.63636H94.1587L93.0257 -1.20359L97.7737 0.363636ZM108.029 0.363636L112.777 -1.20359L111.644 -4.63636H108.029V0.363636ZM117.152 28V33H124.067L121.9 26.4328L117.152 28ZM109.055 28L104.268 29.445L105.341 33H109.055V28ZM103.009 7.97443L107.796 6.52941L106.723 2.97443H103.009V7.97443ZM102.794 7.97443V2.97443H99.0801L98.0069 6.52941L102.794 7.97443ZM95.2367 17.0966V12.0966H90.2367V17.0966H95.2367ZM110.458 17.0966H115.458V12.0966H110.458V17.0966ZM110.458 22.7102V27.7102H115.458V22.7102H110.458ZM95.2367 22.7102H90.2367V27.7102H95.2367V22.7102ZM96.7481 23H88.6515V33H96.7481V23ZM93.3996 29.5672L102.522 1.93086L93.0257 -1.20359L83.9035 26.4328L93.3996 29.5672ZM97.7737 5.36364H108.029V-4.63636H97.7737V5.36364ZM103.281 1.93086L112.403 29.5672L121.9 26.4328L112.777 -1.20359L103.281 1.93086ZM117.152 23H109.055V33H117.152V23ZM113.842 26.555L107.796 6.52941L98.2228 9.41945L104.268 29.445L113.842 26.555ZM103.009 2.97443H102.794V12.9744H103.009V2.97443ZM98.0069 6.52941L91.9615 26.555L101.535 29.445L107.58 9.41945L98.0069 6.52941ZM95.2367 22.0966H110.458V12.0966H95.2367V22.0966ZM105.458 17.0966V22.7102H115.458V17.0966H105.458ZM110.458 17.7102H95.2367V27.7102H110.458V17.7102ZM100.237 22.7102V17.0966H90.2367V22.7102H100.237ZM145.625 0.363636H150.625V-4.63636H145.625V0.363636ZM145.625 28V33H150.625V28H145.625ZM139.364 28L135.244 30.8333L136.734 33H139.364V28ZM129.378 13.4801L133.498 10.6468L132.008 8.48011H129.378V13.4801ZM129.216 13.4801V8.48011H124.216V13.4801H129.216ZM129.216 28V33H134.216V28H129.216ZM121.713 28H116.713V33H121.713V28ZM121.713 0.363636V-4.63636H116.713V0.363636H121.713ZM128.083 0.363636L132.219 -2.44538L130.731 -4.63636H128.083V0.363636ZM137.906 14.8295L133.77 17.6386L135.258 19.8295H137.906V14.8295ZM138.122 14.8295V19.8295H143.122V14.8295H138.122ZM138.122 0.363636V-4.63636H133.122V0.363636H138.122ZM140.625 0.363636V28H150.625V0.363636H140.625ZM145.625 23H139.364V33H145.625V23ZM143.484 25.1667L133.498 10.6468L125.258 16.3134L135.244 30.8333L143.484 25.1667ZM129.378 8.48011H129.216V18.4801H129.378V8.48011ZM124.216 13.4801V28H134.216V13.4801H124.216ZM129.216 23H121.713V33H129.216V23ZM126.713 28V0.363636H116.713V28H126.713ZM121.713 5.36364H128.083V-4.63636H121.713V5.36364ZM123.946 3.17265L133.77 17.6386L142.043 12.0205L132.219 -2.44538L123.946 3.17265ZM137.906 19.8295H138.122V9.82955H137.906V19.8295ZM143.122 14.8295V0.363636H133.122V14.8295H143.122ZM138.122 5.36364H145.625V-4.63636H138.122V5.36364ZM158.253 28V33H161.967L163.04 29.445L158.253 28ZM150.157 28L145.409 26.4328L143.241 33H150.157V28ZM159.279 0.363636V-4.63636H155.664L154.531 -1.20359L159.279 0.363636ZM169.534 0.363636L174.282 -1.20359L173.149 -4.63636H169.534V0.363636ZM178.657 28V33H185.572L183.405 26.4328L178.657 28ZM170.56 28L165.773 29.445L166.847 33H170.56V28ZM164.515 7.97443L169.301 6.52941L168.228 2.97443H164.515V7.97443ZM164.299 7.97443V2.97443H160.585L159.512 6.52941L164.299 7.97443ZM156.742 17.0966V12.0966H151.742V17.0966H156.742ZM171.963 17.0966H176.963V12.0966H171.963V17.0966ZM171.963 22.7102V27.7102H176.963V22.7102H171.963ZM156.742 22.7102H151.742V27.7102H156.742V22.7102ZM158.253 23H150.157V33H158.253V23ZM154.905 29.5672L164.027 1.93086L154.531 -1.20359L145.409 26.4328L154.905 29.5672ZM159.279 5.36364H169.534V-4.63636H159.279V5.36364ZM164.786 1.93086L173.909 29.5672L183.405 26.4328L174.282 -1.20359L164.786 1.93086ZM178.657 23H170.56V33H178.657V23ZM175.347 26.555L169.301 6.52941L159.728 9.41945L165.773 29.445L175.347 26.555ZM164.515 2.97443H164.299V12.9744H164.515V2.97443ZM159.512 6.52941L153.467 26.555L163.04 29.445L169.085 9.41945L159.512 6.52941ZM156.742 22.0966H171.963V12.0966H156.742V22.0966ZM166.963 17.0966V22.7102H176.963V17.0966H166.963ZM171.963 17.7102H156.742V27.7102H171.963V17.7102ZM161.742 22.7102V17.0966H151.742V22.7102H161.742Z" fill="black"/>
</svg>
